SplineFontDB: 3.2
FontName: Roland
FullName: Roland
FamilyName: Roland
Weight: Regular
Copyright: Copyright (c) 2020, Roland Bernard
UComments: "2020-7-24: Created with FontForge (http://fontforge.org)"
Version: 001.000
ItalicAngle: 10
UnderlinePosition: -95
UnderlineWidth: 47
Ascent: 750
Descent: 200
InvalidEm: 0
LayerCount: 2
Layer: 0 0 "Back" 1
Layer: 1 0 "Fore" 0
XUID: [1021 36 1614478912 1887134]
FSType: 0
OS2Version: 0
OS2_WeightWidthSlopeOnly: 0
OS2_UseTypoMetrics: 1
CreationTime: 1595591488
ModificationTime: 1595625396
PfmFamily: 17
TTFWeight: 400
TTFWidth: 5
LineGap: 86
VLineGap: 0
OS2TypoAscent: 0
OS2TypoAOffset: 1
OS2TypoDescent: 0
OS2TypoDOffset: 1
OS2TypoLinegap: 86
OS2WinAscent: 0
OS2WinAOffset: 1
OS2WinDescent: 0
OS2WinDOffset: 1
HheadAscent: 0
HheadAOffset: 1
HheadDescent: 0
HheadDOffset: 1
OS2Vendor: 'PfEd'
MarkAttachClasses: 1
DEI: 91125
Encoding: ISO8859-1
UnicodeInterp: none
NameList: AGL For New Fonts
DisplaySize: -48
AntiAlias: 1
FitToEm: 0
WidthSeparation: 142
WinInfo: 0 19 7
BeginPrivate: 0
EndPrivate
BeginChars: 256 99

StartChar: O
Encoding: 79 79 0
Width: 810
Flags: HW
HStem: 0 75<299.003 510.997> 675 75<299.003 510.997>
VStem: 30 80<264.233 485.767> 700 80<264.233 485.767>
LayerCount: 2
Fore
SplineSet
405 750 m 0
 611.663085938 750 780 581.663085938 780 375 c 0
 780 168.336914062 611.663085938 0 405 0 c 0
 198.336914062 0 30 168.336914062 30 375 c 0
 30 581.663085938 198.336914062 750 405 750 c 0
405 675 m 0
 238.870117188 675 110 541.129882812 110 375 c 0
 110 208.870117188 238.870117188 75 405 75 c 0
 571.129882812 75 700 208.870117188 700 375 c 0
 700 541.129882812 571.129882812 675 405 675 c 0
EndSplineSet
EndChar

StartChar: o
Encoding: 111 111 1
Width: 510
VWidth: 1000
Flags: HW
LayerCount: 2
Fore
SplineSet
255 450 m 0
 378.8203125 450 480 348.8203125 480 225 c 0
 480 101.1796875 378.8203125 0 255 0 c 0
 131.1796875 0 30 101.1796875 30 225 c 0
 30 348.8203125 131.1796875 450 255 450 c 0
255 375 m 0
 171.712890625 375 110 308.287109375 110 225 c 0
 110 141.712890625 171.712890625 75 255 75 c 0
 338.287109375 75 400 141.712890625 400 225 c 0
 400 308.287109375 338.287109375 375 255 375 c 0
EndSplineSet
EndChar

StartChar: A
Encoding: 65 65 2
Width: 682
Flags: HW
LayerCount: 2
Fore
SplineSet
304.998046875 750 m 1
 377.76171875 750 l 1
 652.759765625 0 l 1
 652.759765625 -0.001953125 l 1
 570.212890625 -0.001953125 l 1
 469.37890625 274.998046875 l 1
 213.375 274.998046875 l 1
 112.541015625 -0.001953125 l 1
 30 -0.001953125 l 1
 30 0 l 1
 304.998046875 750 l 1
341.376953125 624.095703125 m 1
 240.875 349.998046875 l 1
 441.87890625 349.998046875 l 1
 341.376953125 624.095703125 l 1
EndSplineSet
EndChar

StartChar: a
Encoding: 97 97 3
Width: 535
Flags: HW
HStem: 0 74.998<183.763 327.453> 374.996 75.0039<183.763 327.453>
VStem: 30 79.998<150.627 299.372> 400.002 79.998<-0.00195312 75.0527 148.235 301.763 374.949 435>
LayerCount: 2
Fore
SplineSet
240 450 m 0
 305.34765625 450 368.8046875 419.790039062 400.001953125 374.94921875 c 1
 400.001953125 435 l 1
 480 435 l 1
 480 -0.001953125 l 1
 400.001953125 -0.001953125 l 1
 400.001953125 75.052734375 l 1
 368.8046875 30.2119140625 305.34765625 0 240 0 c 0
 116.209960938 0 30 101.209960938 30 225 c 0
 30 348.790039062 116.209960938 450 240 450 c 0
255 374.99609375 m 0
 174.4453125 374.99609375 109.998046875 305.5546875 109.998046875 225 c 0
 109.998046875 144.4453125 174.4453125 74.998046875 255 74.998046875 c 0
 335.5546875 74.998046875 400.001953125 144.4453125 400.001953125 225 c 0
 400.001953125 305.5546875 335.5546875 374.99609375 255 374.99609375 c 0
EndSplineSet
EndChar

StartChar: b
Encoding: 98 98 4
Width: 540
Flags: HW
LayerCount: 2
Fore
SplineSet
300 450 m 0
 423.790039062 450 510 348.790039062 510 225 c 0
 510 101.209960938 423.790039062 0 300 0 c 0
 234.65234375 0 171.1953125 30.2119140625 139.998046875 75.052734375 c 1
 139.998046875 0 l 1
 60 0 l 1
 60 735 l 1
 139.998046875 735 l 1
 139.998046875 374.94921875 l 1
 171.1953125 419.790039062 234.65234375 450 300 450 c 0
285 374.99609375 m 0
 204.4453125 374.99609375 139.998046875 305.5546875 139.998046875 225 c 0
 139.998046875 144.4453125 204.4453125 74.998046875 285 74.998046875 c 0
 365.5546875 74.998046875 430.001953125 144.4453125 430.001953125 225 c 0
 430.001953125 305.5546875 365.5546875 374.99609375 285 374.99609375 c 0
EndSplineSet
EndChar

StartChar: c
Encoding: 99 99 5
Width: 425
Flags: HW
LayerCount: 2
Fore
SplineSet
255 450 m 0
 301.168945312 450 344.192382812 435.916992188 380 411.83984375 c 1
 380 336.216796875 l 1
 342.421875 363.71875 308.489257812 374.99609375 255 374.99609375 c 0
 174.4453125 374.99609375 109.998046875 305.5546875 109.998046875 225 c 0
 109.998046875 144.4453125 174.4453125 74.998046875 255 74.998046875 c 0
 308.489257812 74.998046875 349.747070312 86.8974609375 385 113.783203125 c 1
 385 38.162109375 l 1
 349.192382812 14.0849609375 301.168945312 0 255 0 c 0
 131.209960938 0 30 101.209960938 30 225 c 0
 30 348.790039062 131.209960938 450 255 450 c 0
EndSplineSet
EndChar

StartChar: d
Encoding: 100 100 6
Width: 575
Flags: HW
LayerCount: 2
Fore
SplineSet
240 450 m 0
 305.34765625 450 368.8046875 419.790039062 400.001953125 374.94921875 c 1
 400.001953125 735 l 1
 480 735 l 1
 480 0 l 1
 400.001953125 0 l 1
 400.001953125 75.052734375 l 1
 368.8046875 30.2119140625 305.34765625 0 240 0 c 0
 116.209960938 0 30 101.209960938 30 225 c 0
 30 348.790039062 116.209960938 450 240 450 c 0
255 374.99609375 m 0
 174.4453125 374.99609375 109.998046875 305.5546875 109.998046875 225 c 0
 109.998046875 144.4453125 174.4453125 74.998046875 255 74.998046875 c 0
 335.5546875 74.998046875 400.001953125 144.4453125 400.001953125 225 c 0
 400.001953125 305.5546875 335.5546875 374.99609375 255 374.99609375 c 0
EndSplineSet
EndChar

StartChar: e
Encoding: 101 101 7
Width: 496
Flags: HW
LayerCount: 2
Fore
SplineSet
255 450 m 1
 378.790039062 450 466 344.801757812 466 249 c 2
 466 224.998046875 l 1
 400.001953125 224.998046875 l 1
 400.001953125 225 l 1
 109.998046875 225 l 1
 109.998046875 144.4453125 172.4453125 66.99609375 253 66.99609375 c 0
 307.415039062 66.99609375 354.482421875 104.231445312 385.2890625 148.0859375 c 1
 449.712890625 112.580078125 l 1
 410.684570312 45.4033203125 337.909179688 0 255 0 c 0
 131.209960938 0 30 101.209960938 30 225 c 0
 30 348.790039062 131.209960938 450 255 450 c 1
251 383.001953125 m 0
 191.065429688 383.001953125 142.271484375 340.125976562 121.212890625 285 c 1
 387.482421875 285 l 1
 364.157226562 340.125976562 310.934570312 383.001953125 251 383.001953125 c 0
EndSplineSet
EndChar

StartChar: f
Encoding: 102 102 8
Width: 321
Flags: HW
LayerCount: 2
Fore
SplineSet
238.998046875 750 m 1
 252.106445312 750 275.798828125 747.694335938 291.818359375 738.884765625 c 1
 273.11328125 668.611328125 l 1
 253.674804688 674.999023438 247.115234375 674.99609375 240.998046875 674.99609375 c 0
 201.865234375 674.99609375 184.995117188 639.134765625 184.994140625 600.001953125 c 2
 184.994140625 600 l 1
 184.998046875 449.998046875 l 1
 284.998046875 449.998046875 l 1
 284.998046875 389.998046875 l 1
 184.998046875 389.998046875 l 1
 184.998046875 0 l 1
 105 0 l 1
 105 389.998046875 l 1
 30 389.998046875 l 1
 30 449.998046875 l 1
 105 449.998046875 l 1
 104.998046875 600 l 2
 104.998046875 682.369140625 156.62890625 750 238.998046875 750 c 1
EndSplineSet
EndChar

StartChar: g
Encoding: 103 103 9
Width: 540
Flags: HW
LayerCount: 2
Fore
SplineSet
250 450.001953125 m 0
 315.34765625 450.001953125 378.8046875 419.791992188 410.001953125 374.951171875 c 1
 410.001953125 435.001953125 l 1
 490 435.001953125 l 1
 490 25 l 2
 490 -98.7900390625 388.790039062 -200 265 -200 c 0
 163.356445312 -200 73.9765625 -131.409179688 47.669921875 -33.228515625 c 1
 124.943359375 -12.5234375 l 1
 141.978515625 -76.1025390625 199.178710938 -119.99609375 265 -119.99609375 c 0
 345.5546875 -119.99609375 410.001953125 -55.5546875 410.001953125 25 c 2
 410.001953125 75.0546875 l 1
 378.8046875 30.2138671875 315.34765625 0.001953125 250 0.001953125 c 0
 126.209960938 0.001953125 40 101.211914062 40 225.001953125 c 0
 40 348.791992188 126.209960938 450.001953125 250 450.001953125 c 0
265 374.998046875 m 0
 184.4453125 374.998046875 119.998046875 305.556640625 119.998046875 225.001953125 c 0
 119.998046875 144.447265625 184.4453125 75 265 75 c 0
 345.5546875 75 410.001953125 144.447265625 410.001953125 225.001953125 c 0
 410.001953125 305.556640625 345.5546875 374.998046875 265 374.998046875 c 0
EndSplineSet
EndChar

StartChar: h
Encoding: 104 104 10
Width: 517
Flags: HW
LayerCount: 2
Fore
SplineSet
285.118164062 452.49609375 m 0
 383.454101562 452.49609375 462.616210938 369.586914062 462.616210938 270.044921875 c 2
 462.616210938 0 l 1
 382.618164062 0 l 1
 382.618164062 275.044921875 l 2
 382.618164062 332.854492188 336.024414062 379.672851562 283.594726562 382.11328125 c 0
 256.852539062 383.358398438 216.767578125 379.697265625 184.19140625 358.271484375 c 0
 156.325195312 339.944335938 140.116210938 305.193359375 140.116210938 276.330078125 c 2
 140.116210938 0 l 1
 60.1181640625 0 l 1
 60.1181640625 150.071289062 59.8525390625 584.948242188 60.1181640625 735 c 1
 140.116210938 735 l 1
 140.116210938 380.951171875 l 1
 173.296875 428.21484375 228.134765625 452.44140625 285.118164062 452.49609375 c 0
EndSplineSet
EndChar

StartChar: i
Encoding: 105 105 11
Width: 230
Flags: HW
LayerCount: 2
Fore
SplineSet
115 725 m 0
 145.35546875 725 170 700.35546875 170 670 c 0
 170 639.64453125 145.35546875 615 115 615 c 0
 84.64453125 615 60 639.64453125 60 670 c 0
 60 700.35546875 84.64453125 725 115 725 c 0
75.00390625 435.001953125 m 1
 155.001953125 435.001953125 l 1
 155.001953125 0.001953125 l 1
 75.00390625 0.001953125 l 1
 75.00390625 435.001953125 l 1
EndSplineSet
EndChar

StartChar: j
Encoding: 106 106 12
Width: 317
Flags: HW
LayerCount: 2
Fore
SplineSet
214.994140625 725 m 0
 245.370117188 725 269.994140625 700.375976562 269.994140625 670 c 0
 269.994140625 639.624023438 245.370117188 615 214.994140625 615 c 0
 184.618164062 615 159.994140625 639.624023438 159.994140625 670 c 0
 159.994140625 700.375976562 184.618164062 725 214.994140625 725 c 0
174.998046875 435.001953125 m 1
 254.99609375 435.001953125 l 1
 254.99609375 25.001953125 l 1
 174.998046875 25.001953125 l 1
 174.998046875 435.001953125 l 1
174.99609375 25 m 1
 255 25 l 1
 255 -98.7900390625 153.790039062 -200 30 -200 c 1
 30 -124.998046875 l 1
 110.5546875 -124.998046875 174.99609375 -55.5546875 174.99609375 25 c 1
EndSplineSet
EndChar

StartChar: k
Encoding: 107 107 13
Width: 503
Flags: HW
LayerCount: 2
Fore
SplineSet
60 735 m 1
 139.998046875 735 l 1
 139.998046875 283.0234375 l 1
 306.96875 449.998046875 l 1
 413.029296875 449.998046875 l 1
 213.033203125 249.99609375 l 1
 463.03125 -0.001953125 l 1
 356.96875 -0.001953125 l 1
 139.998046875 216.96875 l 1
 139.998046875 0 l 1
 60 0 l 1
 60 735 l 1
EndSplineSet
EndChar

StartChar: l
Encoding: 108 108 14
Width: 199
Flags: HW
LayerCount: 2
Fore
SplineSet
60 735 m 1
 139.997070312 735 l 1
 139.997070312 0.0029296875 l 1
 60 0.0029296875 l 1
 60 735 l 1
EndSplineSet
EndChar

StartChar: m
Encoding: 109 109 15
Width: 835
Flags: HW
LayerCount: 2
Fore
SplineSet
280.118164062 453 m 0
 350.200195312 453 410.532226562 410.8828125 439.422851562 350.65234375 c 1
 445.116210938 361.639648438 451.166015625 372.064453125 457.616210938 381.455078125 c 0
 490.796875 428.71875 545.634765625 452.9453125 602.618164062 453 c 0
 700.954101562 453 780.116210938 370.08984375 780.116210938 270.548828125 c 2
 780.116210938 0.50390625 l 1
 700.118164062 0.50390625 l 1
 700.118164062 275.548828125 l 2
 700.118164062 333.359375 653.524414062 380.176757812 601.094726562 382.6171875 c 0
 574.352539062 383.861328125 534.268554688 380.201171875 501.692382812 358.775390625 c 0
 473.826171875 340.448242188 457.616210938 305.697265625 457.616210938 276.833984375 c 2
 457.616210938 270.548828125 l 1
 457.616210938 0.50390625 l 1
 377.618164062 0.50390625 l 1
 377.618164062 150.575195312 377.352539062 47.4501953125 377.618164062 197.501953125 c 2
 377.618164062 275.548828125 l 2
 377.618164062 333.359375 331.024414062 380.176757812 278.594726562 382.6171875 c 0
 251.852539062 383.861328125 211.768554688 380.201171875 179.192382812 358.775390625 c 0
 151.326171875 340.448242188 135.116210938 305.697265625 135.116210938 276.833984375 c 2
 135.116210938 0.50390625 l 1
 55.1181640625 0.50390625 l 1
 55.1181640625 150.575195312 54.8525390625 285.450195312 55.1181640625 435.501953125 c 1
 135.116210938 435.501953125 l 1
 135.116210938 381.455078125 l 1
 168.296875 428.71875 223.134765625 452.9453125 280.118164062 453 c 0
EndSplineSet
EndChar

StartChar: n
Encoding: 110 110 16
Width: 512
Flags: HW
LayerCount: 2
Fore
SplineSet
280.118164062 453 m 0
 378.454101562 453 457.616210938 370.08984375 457.616210938 270.548828125 c 2
 457.616210938 0.50390625 l 1
 377.618164062 0.50390625 l 1
 377.618164062 275.548828125 l 2
 377.618164062 333.358398438 331.024414062 380.176757812 278.594726562 382.6171875 c 0
 251.852539062 383.862304688 211.767578125 380.201171875 179.19140625 358.775390625 c 0
 151.325195312 340.448242188 135.116210938 305.697265625 135.116210938 276.833984375 c 2
 135.116210938 0.50390625 l 1
 55.1181640625 0.50390625 l 1
 55.1181640625 150.575195312 54.8525390625 285.450195312 55.1181640625 435.501953125 c 1
 135.116210938 435.501953125 l 1
 135.116210938 381.455078125 l 1
 168.296875 428.71875 223.134765625 452.9453125 280.118164062 453 c 0
EndSplineSet
EndChar

StartChar: p
Encoding: 112 112 17
Width: 540
Flags: HW
LayerCount: 2
Fore
SplineSet
300 450 m 0
 423.790039062 450 510 348.790039062 510 225 c 0
 510 101.209960938 423.790039062 0 300 0 c 0
 234.65234375 0 171.1953125 30.2119140625 139.998046875 75.052734375 c 1
 139.998046875 -200 l 1
 60 -200 l 1
 60 435 l 1
 139.998046875 435 l 1
 139.998046875 374.94921875 l 1
 171.1953125 419.790039062 234.65234375 450 300 450 c 0
285 374.99609375 m 0
 204.4453125 374.99609375 139.998046875 305.5546875 139.998046875 225 c 0
 139.998046875 144.4453125 204.4453125 74.998046875 285 74.998046875 c 0
 365.5546875 74.998046875 430.001953125 144.4453125 430.001953125 225 c 0
 430.001953125 305.5546875 365.5546875 374.99609375 285 374.99609375 c 0
EndSplineSet
EndChar

StartChar: q
Encoding: 113 113 18
Width: 540
Flags: HW
LayerCount: 2
Fore
SplineSet
240 450 m 0
 305.34765625 450 368.8046875 419.790039062 400.001953125 374.94921875 c 1
 400.001953125 435 l 1
 480 435 l 1
 480 -200 l 1
 400.001953125 -200 l 1
 400.001953125 75.052734375 l 1
 368.8046875 30.2119140625 305.34765625 0 240 0 c 0
 116.209960938 0 30 101.209960938 30 225 c 0
 30 348.790039062 116.209960938 450 240 450 c 0
255 374.99609375 m 0
 174.4453125 374.99609375 109.998046875 305.5546875 109.998046875 225 c 0
 109.998046875 144.4453125 174.4453125 74.998046875 255 74.998046875 c 0
 335.5546875 74.998046875 400.001953125 144.4453125 400.001953125 225 c 0
 400.001953125 305.5546875 335.5546875 374.99609375 255 374.99609375 c 0
EndSplineSet
EndChar

StartChar: r
Encoding: 114 114 19
Width: 342
Flags: HW
LayerCount: 2
Fore
SplineSet
280.118164062 453 m 0
 291.205078125 453 302.24609375 451.40625 312.887695312 448.26953125 c 1
 292.948242188 380.65234375 l 1
 287.916015625 382.059570312 282.271484375 382.345703125 280.118164062 382.525390625 c 0
 247.596679688 384.611328125 207.811523438 378.7734375 179.192382812 358.775390625 c 0
 151.326171875 340.448242188 135.116210938 305.697265625 135.116210938 276.833984375 c 2
 135.116210938 0.50390625 l 1
 55.1181640625 0.50390625 l 1
 55.1181640625 150.575195312 54.8525390625 285.450195312 55.1181640625 435.501953125 c 1
 135.116210938 435.501953125 l 1
 135.116210938 381.455078125 l 1
 168.296875 428.71875 223.134765625 452.9453125 280.118164062 453 c 0
EndSplineSet
EndChar

StartChar: s
Encoding: 115 115 20
Width: 422
Flags: HW
LayerCount: 2
Fore
SplineSet
217.220703125 450 m 2
 217.22265625 450 l 2
 253.235351562 450 284.509765625 442.7109375 310.69921875 427.921875 c 0
 336.869140625 413.438476562 355.973632812 392.474609375 367.408203125 365.588867188 c 2
 369.421875 360.848632812 l 1
 302.859375 319.967773438 l 1
 300.083984375 326.206054688 l 2
 292.2265625 343.884765625 280.821289062 357.170898438 265.56640625 366.600585938 c 2
 265.544921875 366.616210938 l 1
 265.521484375 366.624023438 l 2
 250.556640625 376.045898438 233.147460938 380.797851562 212.78515625 380.797851562 c 0
 193.495117188 380.797851562 178.456054688 375.50390625 166.59765625 364.993164062 c 2
 166.58984375 364.985351562 l 2
 155.036132812 354.775390625 149.522460938 342.296875 149.522460938 325.971679688 c 0
 149.522460938 315.702148438 154.84765625 306.1328125 167.40234375 296.407226562 c 0
 179.956054688 286.680664062 199.583007812 277.40234375 226.108398438 269.094726562 c 2
 226.140625 269.086914062 l 1
 226.169921875 269.072265625 l 2
 236.206054688 265.825195312 244.166015625 263.3203125 250.013671875 261.56640625 c 2
 250.064453125 261.55078125 l 1
 250.125 261.536132812 l 2
 294.6640625 247.1875 326.077148438 230.790039062 344.46484375 211.170898438 c 0
 363.0625 191.938476562 372.32421875 166.172851562 372.32421875 135.129882812 c 0
 372.32421875 95.240234375 357.709960938 61.9853515625 329 36.9794921875 c 1
 329 36.9716796875 l 1
 328.9921875 36.9716796875 l 1
 300.56640625 12.2529296875 263.272460938 0.0029296875 218.1171875 0.0029296875 c 0
 179.498046875 0.0029296875 146.215820312 7.2529296875 118.548828125 22.0087890625 c 2
 118.53515625 22.0166015625 l 1
 118.52734375 22.0234375 l 2
 91.158203125 36.7841796875 69.1240234375 59.173828125 52.671875 88.7265625 c 2
 50 93.53125 l 1
 119.58203125 140.2578125 l 1
 122.66796875 134.333984375 l 2
 133.525390625 113.4765625 147.025390625 98.1064453125 163.1796875 87.798828125 c 2
 163.1875 87.7919921875 l 2
 179.301757812 77.8076171875 198.336914062 72.7470703125 220.7734375 72.7470703125 c 0
 242.573242188 72.7470703125 259.388671875 78.044921875 272.0546875 88.2861328125 c 2
 272.078125 88.30859375 l 1
 272.099609375 88.3232421875 l 2
 283.44140625 97.302734375 289.51171875 108.09765625 290.8515625 121.913085938 c 0
 290.9453125 122.880859375 291.014648438 123.865234375 291.0625 124.862304688 c 0
 291.111328125 125.905273438 291.138671875 126.956054688 291.138671875 128.022460938 c 0
 291.138671875 128.0234375 291.138671875 128.025390625 291.138671875 128.026367188 c 0
 291.138671875 128.055664062 291.13671875 128.083984375 291.13671875 128.114257812 c 0
 291.135742188 128.8984375 291.1171875 129.674804688 291.0859375 130.444335938 c 0
 290.58984375 142.119140625 286.446289062 151.350585938 278.30859375 159.241210938 c 2
 278.27734375 159.271484375 l 1
 278.240234375 159.301757812 l 2
 269.916015625 167.625 254.194335938 176.224609375 231.26953125 184.059570312 c 2
 231.1875 184.08984375 l 1
 231.107421875 184.120117188 l 2
 228.893554688 184.950195312 225.069335938 186.275390625 219.775390625 188.040039062 c 2
 219.74609375 188.047851562 l 1
 219.71484375 188.0625 l 2
 169.8671875 205.225585938 132.181640625 224.583984375 106.580078125 246.66015625 c 0
 80.9775390625 268.736328125 67.44921875 294.010742188 67.44921875 321.52734375 c 0
 67.44921875 359.09375 81.6669921875 390.594726562 109.48046875 414.390625 c 0
 137.305664062 438.196289062 173.548828125 450 217.220703125 450 c 2
137.658203125 329.33203125 m 1
 137.60546875 328.223632812 137.578125 327.10546875 137.578125 325.970703125 c 0
 137.578125 325.185546875 137.604492188 324.404296875 137.658203125 323.626953125 c 1
 137.611328125 324.404296875 137.578125 325.185546875 137.578125 325.970703125 c 0
 137.578125 327.1015625 137.608398438 328.220703125 137.658203125 329.33203125 c 1
EndSplineSet
EndChar

StartChar: t
Encoding: 116 116 21
Width: 314
Flags: HW
LayerCount: 2
Fore
SplineSet
104.998046875 650 m 1
 184.994140625 650 l 1
 184.998046875 450 l 1
 284.998046875 450 l 1
 284.998046875 390 l 1
 184.998046875 390 l 1
 184.998046875 0.001953125 l 1
 105 0.001953125 l 1
 105 390 l 1
 30 390 l 1
 30 450 l 1
 105 450 l 1
 104.998046875 650 l 1
EndSplineSet
EndChar

StartChar: u
Encoding: 117 117 22
Width: 504
Flags: HW
LayerCount: 2
Fore
SplineSet
55 450 m 1
 134.998046875 450 l 1
 134.998046875 174.99609375 l 2
 134.998046875 104.998046875 177.060546875 74.998046875 230.001953125 74.998046875 c 2
 274.16796875 74.998046875 l 2
 327.109375 74.998046875 369.166015625 104.998046875 369.166015625 174.99609375 c 2
 369.166015625 450 l 1
 449.1640625 450 l 1
 449.1640625 174.99609375 l 2
 449.1640625 59.998046875 370.34375 0 274.16796875 0 c 2
 230.001953125 0 l 2
 133.826171875 0 55 59.998046875 55 174.99609375 c 2
 55 450 l 1
EndSplineSet
EndChar

StartChar: v
Encoding: 118 118 23
Width: 534
Flags: HW
LayerCount: 2
Fore
SplineSet
30 450 m 1
 117.578125 450 l 1
 267.009765625 112.5625 l 1
 416.486328125 450 l 1
 504.072265625 450 l 1
 303.54296875 0.001953125 l 1
 230.470703125 0.001953125 l 1
 30 450 l 1
EndSplineSet
EndChar

StartChar: w
Encoding: 119 119 24
Width: 920
Flags: HW
LayerCount: 2
Fore
SplineSet
30 450 m 1
 117.578125 450 l 1
 267.009765625 112.5625 l 1
 416.486328125 450 l 1
 416.494140625 450 l 1
 504.072265625 450 l 1
 653.50390625 112.5625 l 1
 802.98046875 450 l 1
 890.56640625 450 l 1
 690.037109375 0.001953125 l 1
 616.96484375 0.001953125 l 1
 460.27734375 351.720703125 l 1
 303.54296875 0.001953125 l 1
 230.470703125 0.001953125 l 1
 30 450 l 1
EndSplineSet
EndChar

StartChar: x
Encoding: 120 120 25
Width: 548
Flags: HW
LayerCount: 2
Fore
SplineSet
40 450 m 1
 140.134765625 450 l 1
 274.158203125 286.193359375 l 1
 408.181640625 450 l 1
 508.31640625 450 l 1
 324.2265625 225 l 1
 508.31640625 0 l 1
 408.1796875 0 l 1
 274.158203125 163.8046875 l 1
 140.13671875 0 l 1
 40 0 l 1
 224.08984375 225 l 1
 40 450 l 1
EndSplineSet
EndChar

StartChar: y
Encoding: 121 121 26
Width: 494
Flags: HW
LayerCount: 2
Fore
SplineSet
30 450 m 1
 113.76953125 450 l 1
 238.681640625 145.533203125 l 1
 379.205078125 450 l 1
 464.564453125 450 l 1
 457.068359375 433.76171875 l 1
 164.560546875 -200 l 1
 79.205078125 -200 l 1
 86.697265625 -183.76171875 l 1
 194.330078125 49.439453125 l 1
 36.03515625 435.291015625 l 1
 30 450 l 1
EndSplineSet
EndChar

StartChar: z
Encoding: 122 122 27
Width: 474
Flags: HW
LayerCount: 2
Fore
SplineSet
40 450 m 1
 77.5 450 l 1
 434 450 l 1
 434 398.705078125 l 1
 158.640625 75 l 1
 396.5 75 l 1
 434 75 l 1
 434 0 l 1
 396.5 0 l 1
 40 0 l 1
 40 51.287109375 l 1
 315.3671875 375 l 1
 77.5 375 l 1
 40 375 l 1
 40 450 l 1
EndSplineSet
EndChar

StartChar: B
Encoding: 66 66 28
Width: 568
Flags: HW
LayerCount: 2
Fore
SplineSet
67 750 m 1
 119.03515625 750 l 1
 146.998046875 750 l 1
 244.498046875 750 l 1
 270.142578125 750 l 1
 284.5 750 l 2
 395.077148438 750 485.1171875 658.61328125 485.1171875 547.5 c 0
 485.1171875 486.603515625 458.069335938 431.635742188 415.419921875 394.38671875 c 1
 477.005859375 357.068359375 518.380859375 289.38671875 518.380859375 212.49609375 c 0
 518.380859375 95.609375 422.771484375 0 305.884765625 0 c 2
 278.580078125 0 l 1
 146.998046875 0 l 1
 67 0 l 1
 67 750 l 1
146.998046875 672.49609375 m 1
 146.998046875 422.498046875 l 1
 265.8828125 422.498046875 l 1
 284.5 422.498046875 l 2
 351.3359375 422.498046875 405.119140625 479.12109375 405.119140625 547.5 c 0
 405.119140625 615.87890625 351.3359375 672.49609375 284.5 672.49609375 c 2
 270.142578125 672.49609375 l 1
 244.498046875 672.49609375 l 1
 146.998046875 672.49609375 l 1
146.998046875 347.498046875 m 1
 146.998046875 74.998046875 l 1
 278.580078125 74.998046875 l 1
 305.884765625 74.998046875 l 2
 377.37109375 74.998046875 438.3828125 138.844726562 438.3828125 212.49609375 c 0
 438.3828125 286.147460938 379.536132812 347.498046875 305.884765625 347.498046875 c 2
 284.5 347.498046875 l 1
 265.8828125 347.498046875 l 1
 146.998046875 347.498046875 l 1
EndSplineSet
EndChar

StartChar: C
Encoding: 67 67 29
Width: 681
Flags: HW
LayerCount: 2
Fore
SplineSet
405 750 m 0
 494.7890625 750 577.338867188 718.219726562 641.99609375 665.330078125 c 1
 641.99609375 560 l 1
 588.779296875 632.858398438 503.432617188 675 405 675 c 0
 238.870117188 675 110 541.129882812 110 375 c 0
 110 208.870117188 238.870117188 75 405 75 c 0
 503.432617188 75 588.779296875 117.000976562 641.99609375 189.859375 c 1
 641.99609375 84.669921875 l 1
 577.338867188 31.7802734375 494.7890625 0 405 0 c 0
 198.336914062 0 30 168.336914062 30 375 c 0
 30 581.663085938 198.336914062 750 405 750 c 0
EndSplineSet
EndChar

StartChar: D
Encoding: 68 68 30
Width: 700
Flags: HW
LayerCount: 2
Fore
SplineSet
60 750 m 1
 139.998046875 750 l 1
 295.001953125 750 l 1
 295.001953125 749.998046875 l 1
 501.663085938 749.997070312 670 581.66015625 670 374.998046875 c 0
 670 168.334960938 501.662109375 -0.001953125 295 -0.001953125 c 1
 295 0 l 1
 139.998046875 0 l 1
 113.349609375 0 l 1
 60 0 l 1
 60 750 l 1
139.998046875 675 m 1
 139.998046875 75 l 1
 295.001953125 75 l 1
 295.001953125 74.998046875 l 1
 461.129882812 74.9990234375 590 208.869140625 590 374.998046875 c 0
 590 541.127929688 461.12890625 674.998046875 295 674.998046875 c 1
 295 675 l 1
 139.998046875 675 l 1
EndSplineSet
EndChar

StartChar: E
Encoding: 69 69 31
Width: 500
Flags: HW
LayerCount: 2
Fore
SplineSet
60 750 m 1
 139.998046875 750 l 1
 460.001953125 750 l 1
 460.001953125 675 l 1
 139.998046875 675 l 1
 139.998046875 450 l 1
 460.001953125 450 l 1
 460.001953125 375 l 1
 139.998046875 375 l 1
 139.998046875 75 l 1
 460.001953125 75 l 1
 460.001953125 0 l 1
 139.998046875 0 l 1
 60 0 l 1
 60 75 l 1
 60 375 l 1
 60 450 l 1
 60 675 l 1
 60 750 l 1
EndSplineSet
EndChar

StartChar: F
Encoding: 70 70 32
Width: 500
Flags: HW
LayerCount: 2
Fore
SplineSet
60 750 m 1
 139.998046875 750 l 1
 460.001953125 750 l 1
 460.001953125 675 l 1
 139.998046875 675 l 1
 139.998046875 450 l 1
 460.001953125 450 l 1
 460.001953125 375 l 1
 139.998046875 375 l 1
 139.998046875 249.999023438 139.998046875 124.999023438 140 0 c 1
 139.998046875 0 l 1
 60 0 l 1
 60 75 l 1
 60 375 l 1
 60 450 l 1
 60 675 l 1
 60 750 l 1
EndSplineSet
EndChar

StartChar: G
Encoding: 71 71 33
Width: 846
Flags: HW
LayerCount: 2
Fore
SplineSet
435 750 m 0
 538.331054688 750 632.081054688 707.915039062 699.998046875 639.998046875 c 1
 646.01953125 586.01953125 l 1
 592.950195312 640.999023438 518.709960938 675 435 675 c 0
 268.870117188 675 140 541.129882812 140 375 c 0
 140 208.870117188 268.870117188 75 435 75 c 0
 575.215820312 75 664.888671875 170.364257812 696.939453125 300 c 1
 490.19140625 300 l 1
 490.19140625 375 l 1
 706 375 l 1
 786 375 l 1
 786 166.5703125 641.663085938 0 435 0 c 0
 228.336914062 0 60 168.337890625 60 375 c 0
 60 581.663085938 228.336914062 750 435 750 c 0
EndSplineSet
EndChar

StartChar: H
Encoding: 72 72 34
Width: 670
Flags: HW
LayerCount: 2
Fore
SplineSet
60 750 m 1
 139.998046875 750 l 1
 139.998046875 450 l 1
 529.998046875 450 l 1
 529.998046875 750 l 1
 610.001953125 750 l 1
 610.001953125 450 l 1
 610.001953125 375 l 1
 610.001953125 0 l 1
 529.998046875 0 l 1
 529.998046875 375 l 1
 139.998046875 375 l 1
 139.998046875 0 l 1
 60 0 l 1
 60 375 l 1
 60 450 l 1
 60 750 l 1
EndSplineSet
EndChar

StartChar: I
Encoding: 73 73 35
Width: 200
Flags: HW
LayerCount: 2
Fore
SplineSet
140 750 m 1
 60 750 l 1
 60 0 l 1
 140 0 l 1
 140 750 l 1
EndSplineSet
EndChar

StartChar: J
Encoding: 74 74 36
Width: 428
Flags: HW
LayerCount: 2
Fore
SplineSet
303.625 750 m 1
 383.62890625 750 l 1
 383.62890625 207.150390625 l 2
 383.62890625 93.21875 290.41015625 0 176.478515625 0 c 0
 121.5546875 0 68.8369140625 21.8349609375 30 60.671875 c 1
 80.568359375 116.240234375 l 1
 104.424804688 92.3837890625 142.741210938 74.998046875 176.478515625 74.998046875 c 0
 247.17578125 74.998046875 303.625 136.453125 303.625 207.150390625 c 2
 303.625 750 l 1
EndSplineSet
EndChar

StartChar: K
Encoding: 75 75 37
Width: 603
Flags: HW
LayerCount: 2
Fore
SplineSet
60 750 m 1
 139.998046875 750 l 1
 139.998046875 416.91796875 l 1
 456.54296875 750 l 1
 563.453125 750 l 1
 538.087890625 723.30859375 l 1
 207.076171875 375.001953125 l 1
 538.087890625 26.6953125 l 1
 563.45703125 0 l 1
 456.546875 0 l 1
 139.998046875 333.0859375 l 1
 139.998046875 0.001953125 l 1
 60 0.001953125 l 1
 60 750 l 1
EndSplineSet
EndChar

StartChar: L
Encoding: 76 76 38
Width: 490
Flags: HW
LayerCount: 2
Fore
SplineSet
60 750 m 1
 139.998046875 750 l 1
 139.998046875 75 l 1
 460.001953125 75 l 1
 460.001953125 0 l 1
 139.998046875 0 l 1
 60 0 l 1
 60 75 l 1
 60 750 l 1
EndSplineSet
EndChar

StartChar: M
Encoding: 77 77 39
Width: 938
Flags: HW
LayerCount: 2
Fore
SplineSet
180.001953125 750 m 1
 260.478515625 750 l 1
 469.330078125 165.216796875 l 1
 678.18359375 750 l 1
 758.658203125 750 l 1
 887.5078125 6.6171875 l 1
 888.65625 0 l 1
 810.001953125 0 l 1
 706.296875 598.2890625 l 1
 505.818359375 36.962890625 l 1
 432.833984375 36.962890625 l 1
 232.357421875 598.2890625 l 1
 128.658203125 0 l 1
 50 0 l 1
 51.146484375 6.6171875 l 1
 180.001953125 750 l 1
EndSplineSet
EndChar

StartChar: N
Encoding: 78 78 40
Width: 800
Flags: HW
LayerCount: 2
Fore
SplineSet
60 750 m 1
 149.625 750 l 1
 660 112.03125 l 1
 660 750 l 1
 740.00390625 750 l 1
 740.00390625 0.001953125 l 1
 700.005859375 0.001953125 l 1
 700.00390625 0 l 1
 650.375 0 l 1
 140.00390625 637.96484375 l 1
 140.00390625 0.001953125 l 1
 60 0.001953125 l 1
 60 750 l 1
EndSplineSet
EndChar

StartChar: P
Encoding: 80 80 41
Width: 508
Flags: HW
LayerCount: 2
Fore
SplineSet
60 750 m 1
 112.03515625 750 l 1
 139.998046875 750 l 1
 237.498046875 750 l 1
 263.142578125 750 l 1
 277.5 750 l 2
 388.077148438 750 478.1171875 658.61328125 478.1171875 547.5 c 0
 478.1171875 486.603515625 451.069335938 431.635742188 408.419921875 394.38671875 c 0
 365.415039062 359.515625 325.5078125 349.806640625 252.884765625 347.498046875 c 2
 139.998046875 347.498046875 l 1
 139.998046875 74.998046875 l 1
 139.998046875 0 l 1
 60 0 l 1
 60 750 l 1
139.998046875 672.49609375 m 1
 139.998046875 422.498046875 l 1
 258.8828125 422.498046875 l 1
 277.5 422.498046875 l 2
 344.3359375 422.498046875 398.119140625 479.12109375 398.119140625 547.5 c 0
 398.119140625 615.87890625 344.3359375 672.49609375 277.5 672.49609375 c 2
 263.142578125 672.49609375 l 1
 237.498046875 672.49609375 l 1
 139.998046875 672.49609375 l 1
EndSplineSet
EndChar

StartChar: Q
Encoding: 81 81 42
Width: 854
Flags: HW
LayerCount: 2
Fore
SplineSet
405 750 m 0
 611.662109375 750 780 581.663085938 780 375 c 0
 780 285.583984375 748.483398438 203.346679688 695.98828125 138.810546875 c 1
 834.798828125 0 l 1
 725.19921875 0 l 1
 641.1875 84.01171875 l 1
 576.651367188 31.517578125 494.415039062 0 405 0 c 0
 198.336914062 0 30 168.336914062 30 375 c 0
 30 581.663085938 198.336914062 750 405 750 c 0
405 675 m 0
 238.870117188 675 110 541.129882812 110 375 c 0
 110 208.870117188 238.870117188 75 405 75 c 0
 474.53125 75 537.526367188 98.4609375 587.287109375 137.912109375 c 1
 465.853515625 259.345703125 l 1
 575.453125 259.345703125 l 1
 641.1171875 193.681640625 l 1
 678.247070312 243.990234375 700 306.768554688 700 375 c 0
 700 541.129882812 571.129882812 675 405 675 c 0
EndSplineSet
EndChar

StartChar: R
Encoding: 82 82 43
Width: 547
Flags: HW
LayerCount: 2
Fore
SplineSet
60 750 m 1
 112.03515625 750 l 1
 139.998046875 750 l 1
 237.498046875 750 l 1
 263.142578125 750 l 1
 277.5 750 l 2
 388.077148438 750 478.1171875 658.61328125 478.1171875 547.5 c 0
 478.1171875 486.603515625 451.069335938 431.635742188 408.419921875 394.38671875 c 0
 365.415039062 359.515625 325.5078125 349.806640625 252.884765625 347.498046875 c 2
 251.484375 347.498046875 l 1
 508.45703125 24.103515625 l 1
 527.609375 0 l 1
 428.62109375 0 l 1
 169.666015625 325.890625 l 1
 152.49609375 347.498046875 l 1
 139.998046875 347.498046875 l 1
 139.998046875 74.998046875 l 1
 139.998046875 0 l 1
 60 0 l 1
 60 750 l 1
139.998046875 672.49609375 m 1
 139.998046875 422.498046875 l 1
 258.8828125 422.498046875 l 1
 277.5 422.498046875 l 2
 344.3359375 422.498046875 398.119140625 479.12109375 398.119140625 547.5 c 0
 398.119140625 615.87890625 344.3359375 672.49609375 277.5 672.49609375 c 2
 263.142578125 672.49609375 l 1
 237.498046875 672.49609375 l 1
 139.998046875 672.49609375 l 1
EndSplineSet
EndChar

StartChar: S
Encoding: 83 83 44
Width: 528
Flags: HW
LayerCount: 2
Fore
SplineSet
346.971679688 414.903320312 m 2
 393.276367188 395.112304688 428.0859375 368.833007812 451.400390625 336.065429688 c 0
 475.038085938 303.296875 486.856445312 264.52734375 486.856445312 219.754882812 c 0
 486.856445312 154.21875 465.971679688 101.3359375 424.200195312 61.10546875 c 0
 382.752929688 21.2001953125 327.705078125 1.2470703125 259.05859375 1.2470703125 c 0
 203.0390625 1.2470703125 156.086914062 15.5224609375 118.202148438 44.0732421875 c 0
 80.31640625 72.947265625 54.7353515625 113.826171875 41.4599609375 166.709960938 c 1
 118.202148438 204.668945312 l 1
 128.563476562 161.518554688 145.563476562 128.750976562 169.201171875 106.364257812 c 0
 193.163085938 84.302734375 223.115234375 73.2724609375 259.05859375 73.2724609375 c 0
 301.4765625 73.2724609375 335.80078125 85.4384765625 362.029296875 109.771484375 c 0
 388.2578125 134.427734375 401.372070312 166.384765625 401.372070312 205.641601562 c 0
 401.372070312 237.436523438 392.143554688 265.013671875 373.686523438 288.373046875 c 0
 355.552734375 312.056640625 328.029296875 332.009765625 291.115234375 348.231445312 c 2
 204.658203125 385.216796875 l 2
 157.3828125 405.0078125 122.087890625 430.475585938 98.7734375 461.622070312 c 0
 75.783203125 492.767578125 64.2880859375 530.078125 64.2880859375 573.552734375 c 0
 64.2880859375 624.1640625 83.068359375 666.016601562 120.630859375 699.109375 c 0
 158.192382812 732.201171875 206.115234375 748.748046875 264.401367188 748.748046875 c 0
 307.143554688 748.748046875 344.057617188 739.6640625 375.143554688 721.495117188 c 0
 406.552734375 703.327148438 431 676.560546875 448.485351562 641.197265625 c 1
 378.54296875 596.424804688 l 1
 362.676757812 624.001953125 344.8671875 644.44140625 325.115234375 657.743164062 c 0
 305.362304688 671.370117188 283.01953125 678.182617188 258.086914062 678.182617188 c 0
 226.353515625 678.182617188 200.287109375 668.450195312 179.887695312 648.983398438 c 0
 159.811523438 629.517578125 149.7734375 604.698242188 149.7734375 574.525390625 c 0
 149.7734375 549.219726562 157.544921875 527.3203125 173.086914062 508.827148438 c 0
 188.629882812 490.334960938 212.75390625 473.950195312 245.458007812 459.67578125 c 2
 346.971679688 414.903320312 l 2
264.403320312 750 m 0
 307.318359375 750 344.469726562 740.872070312 375.768554688 722.58203125 c 2
 375.775390625 722.57421875 l 2
 407.397460938 704.280273438 432.02734375 677.30078125 449.606445312 641.749023438 c 2
 450.103515625 640.74609375 l 1
 378.11328125 594.66796875 l 1
 377.462890625 595.796875 l 2
 361.6640625 623.254882812 343.967773438 643.541992188 324.41796875 656.70703125 c 2
 324.411132812 656.70703125 l 1
 324.404296875 656.713867188 l 2
 304.853515625 670.201171875 282.795898438 676.930664062 258.08984375 676.930664062 c 0
 226.615234375 676.930664062 200.91796875 667.319335938 180.752929688 648.08203125 c 0
 160.909179688 628.83984375 151.022460938 604.422851562 151.022460938 574.528320312 c 0
 151.022460938 549.479492188 158.6796875 527.913085938 174.041015625 509.635742188 c 0
 189.408203125 491.352539062 213.364257812 475.047851562 245.954101562 460.822265625 c 2
 245.9609375 460.822265625 l 1
 347.47265625 416.047851562 l 2
 393.927734375 396.19140625 428.942382812 369.78515625 452.412109375 336.80078125 c 2
 452.419921875 336.793945312 l 2
 476.211914062 303.807617188 488.106445312 264.74609375 488.106445312 219.756835938 c 0
 488.106445312 153.954101562 467.083984375 100.668945312 425.068359375 60.203125 c 0
 383.372070312 20.05859375 327.9453125 -0.0048828125 259.056640625 -0.0048828125 c 0
 202.826171875 -0.0048828125 155.5703125 14.34375 117.44921875 43.072265625 c 1
 117.44921875 43.0791015625 l 1
 79.3271484375 72.1337890625 53.5830078125 113.302734375 40.251953125 166.40625 c 2
 40 167.380859375 l 1
 119.051757812 206.482421875 l 1
 119.416015625 204.9609375 l 2
 129.736328125 161.981445312 146.639648438 129.45703125 170.044921875 107.28515625 c 0
 170.048828125 107.28125 170.049804688 107.279296875 170.052734375 107.27734375 c 2
 170.059570312 107.270507812 l 2
 193.790039062 85.4287109375 223.375976562 74.5224609375 259.056640625 74.5224609375 c 0
 301.234375 74.5224609375 335.194335938 86.583984375 361.176757812 110.685546875 c 0
 387.1640625 135.116210938 400.125 166.663085938 400.125 205.640625 c 0
 400.125 237.192382812 390.99609375 264.451171875 372.7109375 287.594726562 c 2
 372.703125 287.6015625 l 1
 372.696289062 287.608398438 l 2
 354.73046875 311.073242188 327.3984375 330.919921875 290.627929688 347.081054688 c 2
 204.171875 384.064453125 l 2
 156.750976562 403.916015625 121.255859375 429.50390625 97.775390625 460.87109375 c 2
 97.7685546875 460.87890625 l 2
 74.6123046875 492.248046875 63.0400390625 529.858398438 63.0400390625 573.553710938 c 0
 63.0400390625 624.475585938 82.0087890625 666.749023438 119.807617188 700.05078125 c 0
 157.609375 733.35546875 205.881835938 750 264.403320312 750 c 0
264.403320312 747.49609375 m 0
 206.353515625 747.49609375 158.7734375 731.051757812 121.452148438 698.171875 c 0
 84.126953125 665.288085938 65.5380859375 623.85546875 65.5380859375 573.553710938 c 0
 65.5380859375 530.303710938 76.9482421875 493.29296875 99.76953125 462.372070312 c 2
 99.7763671875 462.365234375 l 2
 122.923828125 431.4453125 158.012695312 406.098632812 205.13671875 386.372070312 c 1
 205.14453125 386.372070312 l 1
 291.615234375 349.381835938 l 1
 291.615234375 349.374023438 l 1
 328.657226562 333.095703125 356.364257812 313.044921875 374.663085938 289.151367188 c 2
 374.676757812 289.137695312 l 2
 393.296875 265.564453125 402.623046875 237.670898438 402.623046875 205.640625 c 0
 402.623046875 166.104492188 389.353515625 133.739257812 362.883789062 108.85546875 c 1
 362.876953125 108.85546875 l 1
 336.40234375 84.2939453125 301.713867188 72.01953125 259.056640625 72.01953125 c 0
 222.858398438 72.01953125 192.549804688 83.16796875 168.358398438 105.440429688 c 2
 168.3515625 105.447265625 l 1
 168.344726562 105.455078125 l 2
 144.7734375 127.77734375 127.86328125 160.350585938 117.427734375 202.884765625 c 1
 42.98828125 166.0625 l 1
 56.279296875 113.893554688 81.5478515625 73.5810546875 118.953125 45.0703125 c 1
 118.9609375 45.0703125 l 1
 156.608398438 16.701171875 203.250976562 2.498046875 259.055664062 2.498046875 c 0
 327.461914062 2.498046875 382.1328125 22.3388671875 423.33203125 62.005859375 c 0
 464.859375 102 485.607421875 154.487304688 485.607421875 219.756835938 c 0
 485.607421875 264.30859375 473.869140625 302.786132812 450.389648438 335.334960938 c 1
 450.3828125 335.334960938 l 1
 450.3828125 335.342773438 l 1
 427.2265625 367.888671875 392.629882812 394.032226562 346.485351562 413.754882812 c 1
 346.477539062 413.754882812 l 1
 244.953125 458.529296875 l 2
 212.13671875 472.853515625 187.84765625 489.321289062 172.129882812 508.022460938 c 0
 156.40625 526.73046875 148.5234375 548.965820312 148.5234375 574.528320312 c 0
 148.5234375 604.979492188 158.708984375 630.193359375 179.016601562 649.883789062 c 1
 179.024414062 649.883789062 l 1
 179.024414062 649.890625 l 1
 199.658203125 669.581054688 226.1015625 679.434570312 258.08984375 679.434570312 c 0
 283.245117188 679.434570312 305.859375 672.54296875 325.810546875 658.783203125 c 2
 325.825195312 658.775390625 l 2
 345.4921875 645.52734375 363.163085938 625.252929688 378.924804688 598.153320312 c 1
 446.806640625 641.609375 l 1
 429.452148438 676.271484375 405.403320312 702.547851562 374.515625 720.415039062 c 0
 343.645507812 738.45703125 306.96875 747.49609375 264.403320312 747.49609375 c 0
EndSplineSet
EndChar

StartChar: T
Encoding: 84 84 45
Width: 585
Flags: HW
LayerCount: 2
Fore
SplineSet
30 750 m 1
 252.498046875 750 l 1
 332.501953125 750 l 1
 555 750 l 1
 555 675 l 1
 332.501953125 675 l 1
 332.501953125 0 l 1
 252.498046875 0 l 1
 252.498046875 675 l 1
 30 675 l 1
 30 750 l 1
EndSplineSet
EndChar

StartChar: U
Encoding: 85 85 46
Width: 696
Flags: HW
LayerCount: 2
Fore
SplineSet
60 750 m 1
 139.998046875 750 l 1
 139.998046875 247.498046875 l 1
 140 247.498046875 l 1
 140 153.135742188 215.637695312 74.998046875 310 74.998046875 c 2
 385.99609375 74.998046875 l 2
 480.404296875 74.998046875 556.001953125 153.133789062 556.001953125 247.49609375 c 2
 556.00390625 750 l 1
 636.001953125 750 l 1
 636 249.99609375 l 2
 635.999023438 112.3984375 523.59375 0 385.99609375 0 c 2
 310 0 l 1
 310 -0.001953125 l 1
 172.403320312 -0.001953125 60.0009765625 112.399414062 60 249.99609375 c 2
 60 249.998046875 l 1
 60 750 l 1
EndSplineSet
EndChar

StartChar: V
Encoding: 86 86 47
Width: 753
Flags: HW
LayerCount: 2
Fore
SplineSet
35 750 m 1
 118.62890625 750 l 1
 376.814453125 113.14453125 l 1
 635 750 l 1
 718.62890625 750 l 1
 712.7265625 735.4375 l 1
 414.57421875 0 l 1
 339.0546875 0 l 1
 40.90234375 735.4375 l 1
 35 750 l 1
EndSplineSet
EndChar

StartChar: W
Encoding: 87 87 48
Width: 1050
Flags: HW
LayerCount: 2
Fore
SplineSet
35 750 m 1
 115.912109375 750 l 1
 301.50390625 131.36328125 l 1
 488.525390625 720.50390625 l 1
 562.39453125 720.50390625 l 1
 749.416015625 131.37890625 l 1
 935 750 l 1
 1015.91601562 750 l 1
 1012.57226562 738.86328125 l 1
 790.9140625 0 l 1
 709.802734375 0 l 1
 525.46484375 580.70703125 l 1
 341.1171875 0 l 1
 259.998046875 0 l 1
 38.33984375 738.86328125 l 1
 35 750 l 1
EndSplineSet
EndChar

StartChar: X
Encoding: 88 88 49
Width: 673
Flags: HW
LayerCount: 2
Fore
SplineSet
40 750 m 5
 133.14453125 750 l 5
 336.576171875 444.853515625 l 5
 540.009765625 750 l 5
 633.146484375 750 l 5
 618.81640625 728.505859375 l 5
 383.14453125 374.998046875 l 5
 618.81640625 21.490234375 l 5
 633.146484375 0 l 5
 540.005859375 0 l 5
 336.576171875 305.142578125 l 5
 133.1484375 0 l 5
 40 0 l 5
 54.330078125 21.490234375 l 5
 290.00390625 374.998046875 l 5
 54.330078125 728.505859375 l 5
 40 750 l 5
EndSplineSet
EndChar

StartChar: Y
Encoding: 89 89 50
Width: 663
Flags: HW
LayerCount: 2
Fore
SplineSet
35 750 m 1
 128.14453125 750 l 1
 331.576171875 444.853515625 l 1
 535.009765625 750 l 1
 628.146484375 750 l 1
 613.81640625 728.505859375 l 1
 371.57421875 365.142578125 l 1
 371.57421875 0 l 1
 291.57421875 0 l 1
 291.57421875 365.142578125 l 1
 49.330078125 728.505859375 l 1
 35 750 l 1
EndSplineSet
EndChar

StartChar: Z
Encoding: 90 90 51
Width: 660
Flags: HW
LayerCount: 2
Fore
SplineSet
40 750 m 1
 65 750 l 1
 65 749.998046875 l 1
 620.001953125 749.998046875 l 1
 620.001953125 686.65234375 l 1
 150.859375 79.998046875 l 1
 620 79.998046875 l 1
 620 0 l 1
 88.994140625 0 l 1
 40 0 l 1
 40 63.333984375 l 1
 509.15234375 669.99609375 l 1
 40 669.99609375 l 1
 40 750 l 1
EndSplineSet
EndChar

StartChar: zero
Encoding: 48 48 54
Width: 610
Flags: HW
LayerCount: 2
Fore
SplineSet
305.001953125 750 m 1
 305.001953125 750 l 1
 442.599609375 750 554.998046875 637.595703125 554.998046875 499.998046875 c 2
 554.998046875 249.998046875 l 1
 555 249.998046875 l 1
 555 112.400390625 442.59765625 -0.001953125 305 -0.001953125 c 0
 167.403320312 -0.001953125 55.0009765625 112.399414062 55 249.99609375 c 2
 55 249.998046875 l 1
 55 499.998046875 l 2
 55 637.595703125 167.404296875 750 305.001953125 750 c 1
305.001953125 674.99609375 m 2
 305.001953125 674.99609375 l 2
 210.639648438 674.99609375 134.998046875 594.360351562 134.998046875 499.998046875 c 2
 134.998046875 249.998046875 l 1
 135 249.998046875 l 1
 135 155.635742188 210.637695312 74.998046875 305 74.998046875 c 0
 399.361328125 74.998046875 474.999023438 155.634765625 475 249.99609375 c 2
 475 249.998046875 l 1
 475 499.998046875 l 2
 475 594.360351562 399.364257812 674.99609375 305.001953125 674.99609375 c 2
EndSplineSet
EndChar

StartChar: one
Encoding: 49 49 55
Width: 199
Flags: HW
LayerCount: 2
Fore
SplineSet
60 750 m 1
 139.998046875 750 l 1
 139.998046875 0 l 1
 60 0 l 1
 60 750 l 1
EndSplineSet
EndChar

StartChar: two
Encoding: 50 50 56
Width: 555
Flags: HW
LayerCount: 2
Fore
SplineSet
277.5 750 m 0
 408.193359375 750 515 643.193359375 515 512.5 c 0
 515 457.275390625 495.744140625 405.755859375 460.560546875 363.189453125 c 2
 210.322265625 75 l 1
 515.001953125 75 l 1
 515.001953125 0.001953125 l 1
 139.130859375 0.001953125 l 1
 139.12890625 0 l 1
 40 0 l 1
 40.001953125 0.001953125 l 1
 109.685546875 80 l 1
 398.970703125 412.09765625 l 1
 398.8984375 412.15625 l 1
 422.239257812 440.39453125 435 475.864257812 435 512.5 c 0
 435 599.958984375 364.958984375 675 277.5 675 c 0
 190.041015625 675 120 599.958984375 120 512.5 c 1
 40 512.5 l 1
 40 643.193359375 146.806640625 750 277.5 750 c 0
EndSplineSet
EndChar

StartChar: three
Encoding: 51 51 57
Width: 541
Flags: HW
LayerCount: 2
Fore
SplineSet
265.638671875 750 m 0
 379.8203125 750 491.267578125 656.638671875 491.267578125 542.49609375 c 0
 491.267578125 473.90234375 457.51171875 412.826171875 405.796875 374.99609375 c 1
 457.510742188 337.165039062 491.267578125 276.090820312 491.267578125 207.498046875 c 0
 491.267578125 93.35546875 379.81640625 -0.001953125 265.634765625 -0.001953125 c 0
 151.452148438 -0.001953125 40 93.35546875 40 207.498046875 c 1
 120 207.498046875 l 1
 120 136.625 194.653320312 74.998046875 265.634765625 74.998046875 c 0
 336.616210938 74.998046875 411.267578125 136.625 411.267578125 207.498046875 c 0
 411.267578125 278.369140625 336.618164062 337.498046875 265.638671875 337.498046875 c 2
 265.634765625 337.498046875 l 1
 265.634765625 337.5 l 1
 215.6328125 337.5 l 1
 215.6328125 412.5 l 1
 265.638671875 412.5 l 1
 265.638671875 412.498046875 l 1
 265.6640625 412.498046875 265.689453125 412.49609375 265.71484375 412.49609375 c 0
 336.66015625 412.537109375 411.271484375 471.6484375 411.271484375 542.49609375 c 0
 411.271484375 613.369140625 336.620117188 674.99609375 265.638671875 674.99609375 c 0
 194.657226562 674.99609375 119.998046875 613.369140625 119.998046875 542.49609375 c 1
 40 542.49609375 l 1
 40 656.638671875 151.45703125 750 265.638671875 750 c 0
EndSplineSet
EndChar

StartChar: four
Encoding: 52 52 58
Width: 589
Flags: HW
LayerCount: 2
Fore
SplineSet
55 750 m 1
 134.998046875 750 l 1
 134.998046875 484.001953125 l 2
 134.998046875 403.447265625 199.4453125 333.998046875 280 333.998046875 c 2
 450.000976562 333.998046875 l 1
 450.000976562 750 l 1
 529.999023438 750 l 1
 529.999023438 0 l 1
 450.000976562 0 l 1
 450.000976562 259.001953125 l 1
 280 259.001953125 l 2
 156.209960938 259.001953125 55 360.211914062 55 484.001953125 c 2
 55 750 l 1
EndSplineSet
EndChar

StartChar: underscore
Encoding: 95 95 61
Width: 560
Flags: HW
LayerCount: 2
Fore
SplineSet
30 0 m 1
 30 -75 l 1
 530 -75 l 1
 530 0 l 1
 30 0 l 1
EndSplineSet
EndChar

StartChar: five
Encoding: 53 53 62
Width: 557
Flags: HW
LayerCount: 2
Fore
SplineSet
55.67578125 750 m 1
 455 750 l 1
 455 675 l 1
 135.671875 675 l 1
 135.671875 470.970703125 l 1
 171.396484375 489.86328125 211.475585938 499.998046875 252.55078125 499.998046875 c 0
 390.1484375 499.998046875 502.544921875 387.59375 502.544921875 249.99609375 c 0
 502.544921875 112.3984375 380.1484375 0 242.55078125 0 c 0
 173.890625 0 102.203125 28.2626953125 55 78.123046875 c 1
 113.095703125 133.125 l 1
 145.21484375 99.1982421875 195.831054688 74.998046875 242.55078125 74.998046875 c 0
 336.913085938 74.998046875 422.546875 155.633789062 422.546875 249.99609375 c 0
 422.546875 344.358398438 346.913085938 425 252.55078125 425 c 0
 209.061523438 425 167.25390625 403.349609375 135.671875 373.451171875 c 1
 55.67578125 373.451171875 l 1
 55.67578125 675 l 1
 55.67578125 750 l 1
EndSplineSet
EndChar

StartChar: six
Encoding: 54 54 63
Width: 520
Flags: HW
LayerCount: 2
Fore
SplineSet
337.78125 750 m 1
 402.216796875 706.94140625 l 1
 228.451171875 446.888671875 l 1
 237.163085938 447.923828125 246.020507812 448.470703125 255 448.470703125 c 0
 378.790039062 448.470703125 480 347.260742188 480 223.470703125 c 0
 480 99.6806640625 378.790039062 -1.529296875 255 -1.529296875 c 0
 131.209960938 -1.529296875 30 99.6806640625 30 223.470703125 c 0
 30 261.002929688 39.31640625 296.451171875 55.732421875 327.640625 c 1
 55.615234375 327.71875 l 1
 56.3828125 328.8671875 l 2
 63.412109375 342.025390625 71.703125 354.416015625 81.10546875 365.8671875 c 2
 337.78125 750 l 1
255 373.466796875 m 0
 174.444335938 373.466796875 109.998046875 304.026367188 109.998046875 223.470703125 c 0
 109.998046875 142.915039062 174.444335938 73.46875 255 73.46875 c 0
 335.555664062 73.46875 400.001953125 142.915039062 400.001953125 223.470703125 c 0
 400.001953125 304.026367188 335.555664062 373.466796875 255 373.466796875 c 0
EndSplineSet
EndChar

StartChar: seven
Encoding: 55 55 64
Width: 616
Flags: HW
LayerCount: 2
Fore
SplineSet
40.05859375 750 m 1
 77.55859375 750 l 1
 326.91015625 750 l 1
 494.697265625 750 l 1
 524.4765625 750 l 1
 586.796875 750 l 1
 538.638671875 675 l 1
 538.63671875 675 l 1
 409.779296875 474.318359375 l 1
 249.94921875 225.40625 l 1
 229.013671875 192.80078125 l 1
 229.015625 192.798828125 l 1
 126.154296875 32.60546875 l 1
 105.2109375 -0.0078125 l 1
 40 41.87109375 l 1
 60.935546875 74.4765625 l 1
 446.5390625 675 l 1
 77.55859375 675 l 1
 40.05859375 675 l 1
 40.05859375 750 l 1
EndSplineSet
EndChar

StartChar: eight
Encoding: 56 56 65
Width: 530
Flags: HW
LayerCount: 2
Fore
SplineSet
264.998046875 750 m 0
 374.981445312 750 465.001953125 659.979492188 465.001953125 549.99609375 c 0
 465.001953125 485.819335938 434.34375 428.453125 386.9609375 391.791015625 c 1
 443.071289062 352.896484375 480.001953125 288.063476562 480.001953125 214.998046875 c 0
 480.001953125 96.73046875 383.265625 0 264.998046875 0 c 0
 146.73046875 0 50 96.73046875 50 214.998046875 c 0
 50 288.063476562 86.9287109375 352.896484375 143.037109375 391.791015625 c 1
 95.65625 428.453125 65 485.819335938 65 549.99609375 c 0
 65 659.979492188 155.014648438 750 264.998046875 750 c 0
264.998046875 674.99609375 m 0
 198.25 674.99609375 144.998046875 616.744140625 144.998046875 549.99609375 c 0
 144.998046875 483.248046875 198.25 427.49609375 264.998046875 427.49609375 c 0
 331.74609375 427.49609375 384.998046875 483.248046875 384.998046875 549.99609375 c 0
 384.998046875 616.744140625 331.74609375 674.99609375 264.998046875 674.99609375 c 0
264.998046875 352.498046875 m 0
 189.965820312 352.498046875 129.998046875 290.030273438 129.998046875 214.998046875 c 0
 129.998046875 139.965820312 189.965820312 74.998046875 264.998046875 74.998046875 c 0
 340.030273438 74.998046875 399.998046875 139.965820312 399.998046875 214.998046875 c 0
 399.998046875 290.030273438 340.030273438 352.498046875 264.998046875 352.498046875 c 0
EndSplineSet
EndChar

StartChar: nine
Encoding: 57 57 66
Width: 520
Flags: HW
LayerCount: 2
Fore
SplineSet
182.21875 -1.529296875 m 1
 117.783203125 41.529296875 l 1
 291.548828125 301.58203125 l 1
 282.836914062 300.546875 273.979492188 300 265 300 c 0
 141.209960938 300 40 401.209960938 40 525 c 0
 40 648.790039062 141.209960938 750 265 750 c 0
 388.790039062 750 490 648.790039062 490 525 c 0
 490 487.467773438 480.68359375 452.01953125 464.267578125 420.830078125 c 1
 464.384765625 420.751953125 l 1
 463.6171875 419.603515625 l 2
 456.587890625 406.4453125 448.296875 394.0546875 438.89453125 382.603515625 c 2
 182.21875 -1.529296875 l 1
265 375.00390625 m 0
 345.555664062 375.00390625 410.001953125 444.444335938 410.001953125 525 c 0
 410.001953125 605.555664062 345.555664062 675.001953125 265 675.001953125 c 0
 184.444335938 675.001953125 119.998046875 605.555664062 119.998046875 525 c 0
 119.998046875 444.444335938 184.444335938 375.00390625 265 375.00390625 c 0
EndSplineSet
EndChar

StartChar: question
Encoding: 63 63 68
Width: 510
Flags: HW
LayerCount: 2
Fore
SplineSet
255 750 m 0
 378.790039062 750 480 648.790039062 480 525 c 0
 479.999023438 465.342773438 454.286132812 410.084960938 412.1015625 367.900390625 c 2
 334.849609375 290.65625 l 2
 307.645507812 263.452148438 294.3828125 224.592773438 294.3828125 186.12109375 c 1
 214.384765625 186.12109375 l 1
 214.384765625 245.780273438 240.09765625 301.040039062 282.283203125 343.224609375 c 2
 359.52734375 420.46875 l 2
 386.73046875 447.671875 400.000976562 486.529296875 400.001953125 525 c 1
 400 525 l 1
 400 605.5546875 335.5546875 675 255 675 c 0
 174.4453125 675 110 605.5546875 110 525 c 1
 30 525 l 1
 30 648.790039062 131.209960938 750 255 750 c 0
254.3828125 110 m 0
 284.758789062 110 309.3828125 85.3759765625 309.3828125 55 c 0
 309.3828125 24.6240234375 284.758789062 0 254.3828125 0 c 0
 224.006835938 0 199.3828125 24.6240234375 199.3828125 55 c 0
 199.3828125 85.3759765625 224.006835938 110 254.3828125 110 c 0
EndSplineSet
EndChar

StartChar: exclam
Encoding: 33 33 69
Width: 230
Flags: HW
LayerCount: 2
Fore
SplineSet
75.001953125 750 m 1
 155 750 l 1
 155 186.119140625 l 1
 75.001953125 186.119140625 l 1
 75.001953125 750 l 1
115 109.998046875 m 0
 145.35546875 109.998046875 170 85.353515625 170 54.998046875 c 0
 170 24.642578125 145.35546875 -0.001953125 115 -0.001953125 c 0
 84.64453125 -0.001953125 60 24.642578125 60 54.998046875 c 0
 60 85.353515625 84.64453125 109.998046875 115 109.998046875 c 0
EndSplineSet
EndChar

StartChar: quotedbl
Encoding: 34 34 70
Width: 280
Flags: HW
LayerCount: 2
Fore
SplineSet
30 750 m 1
 100.001953125 750 l 1
 100.001953125 499.998046875 l 1
 30 499.998046875 l 1
 30 750 l 1
180 750 m 1
 250.001953125 750 l 1
 250.001953125 499.998046875 l 1
 180 499.998046875 l 1
 180 750 l 1
EndSplineSet
EndChar

StartChar: numbersign
Encoding: 35 35 71
Width: 828
Flags: HW
LayerCount: 2
Fore
SplineSet
393.9921875 750 m 1
 478.00390625 750 l 1
 472.2109375 735.51953125 l 1
 393.00390625 537.5 l 1
 564.99609375 537.5 l 1
 649.791015625 749.486328125 l 1
 649.99609375 750 l 1
 734.005859375 750 l 1
 722.20703125 720.51953125 l 1
 649 537.5 l 1
 788.9921875 537.5 l 1
 758.9921875 462.5 l 1
 619 462.5 l 1
 548.998046875 287.498046875 l 1
 688.9921875 287.498046875 l 1
 658.9921875 212.498046875 l 1
 518.998046875 212.498046875 l 1
 434 0 l 1
 349.99609375 0 l 1
 434.99609375 212.498046875 l 1
 263.001953125 212.498046875 l 1
 178.00390625 0 l 1
 93.994140625 0 l 1
 99.787109375 14.486328125 l 1
 178.9921875 212.498046875 l 1
 40 212.498046875 l 1
 70 287.498046875 l 1
 208.9921875 287.498046875 l 1
 278.9921875 462.5 l 1
 140.001953125 462.5 l 1
 170.001953125 537.5 l 1
 308.9921875 537.5 l 1
 393.9921875 750 l 1
363.00390625 462.5 m 1
 293.001953125 287.498046875 l 1
 464.99609375 287.498046875 l 1
 534.99609375 462.5 l 1
 363.00390625 462.5 l 1
EndSplineSet
EndChar

StartChar: backslash
Encoding: 92 92 72
Width: 583
Flags: HW
LayerCount: 2
Fore
SplineSet
463.013671875 0 m 1
 41.259765625 730.501953125 l 1
 30 750 l 1
 120.060546875 750 l 1
 542.142578125 18.947265625 l 1
 553.078125 0 l 1
 463.013671875 0 l 1
EndSplineSet
EndChar

StartChar: dollar
Encoding: 36 36 73
Width: 525
Flags: HW
LayerCount: 2
Fore
SplineSet
227.591796875 801 m 1
 297.59375 801 l 1
 297.59375 747.6015625 l 1
 325.970703125 743.930664062 351.333007812 735.563476562 373.68359375 722.5 c 0
 405.092773438 704.33203125 429.541992188 677.56640625 447.02734375 642.203125 c 1
 377.083984375 597.4296875 l 1
 361.217773438 625.006835938 343.408203125 645.446289062 323.65625 658.748046875 c 0
 315.420898438 664.428710938 306.729492188 668.908203125 297.59375 672.220703125 c 1
 297.59375 437.04296875 l 1
 345.513671875 415.908203125 l 2
 391.818359375 396.1171875 426.626953125 369.837890625 449.94140625 337.0703125 c 0
 473.579101562 304.302734375 485.3984375 265.532226562 485.3984375 220.759765625 c 0
 485.3984375 155.223632812 464.51171875 102.341796875 422.740234375 62.111328125 c 0
 389.680664062 30.28125 347.958984375 11.16015625 297.59375 4.71875 c 1
 297.59375 -48.994140625 l 1
 227.591796875 -48.994140625 l 1
 227.591796875 3.70703125 l 1
 184.606445312 7.9951171875 147.654296875 21.7822265625 116.7421875 45.078125 c 0
 78.8564453125 73.953125 53.2763671875 114.83203125 40 167.71484375 c 1
 116.7421875 205.673828125 l 1
 127.104492188 162.5234375 144.104492188 129.754882812 167.7421875 107.369140625 c 0
 184.693359375 91.7626953125 204.645507812 81.68359375 227.591796875 77.1171875 c 1
 227.591796875 375.787109375 l 1
 203.19921875 386.22265625 l 2
 155.922851562 406.013671875 120.62890625 431.481445312 97.314453125 462.626953125 c 0
 74.32421875 493.772460938 62.828125 531.083984375 62.828125 574.55859375 c 0
 62.828125 625.170898438 81.6103515625 667.022460938 119.171875 700.115234375 c 0
 148.84375 726.256835938 184.987304688 742.063476562 227.591796875 747.5546875 c 1
 227.591796875 801 l 1
227.591796875 676.12109375 m 1
 208.614257812 671.859375 192.22265625 663.15234375 178.427734375 649.98828125 c 0
 158.3515625 630.522460938 148.314453125 605.704101562 148.314453125 575.53125 c 0
 148.314453125 550.225585938 156.0859375 528.325195312 171.62890625 509.83203125 c 0
 184.444335938 494.583984375 203.108398438 480.775390625 227.591796875 468.39453125 c 1
 227.591796875 676.12109375 l 1
297.59375 345.609375 m 1
 297.59375 78.400390625 l 1
 322.155273438 83.828125 343.150390625 94.6162109375 360.5703125 110.77734375 c 0
 386.798828125 135.434570312 399.912109375 167.389648438 399.912109375 206.646484375 c 0
 399.912109375 238.44140625 390.68359375 266.01953125 372.2265625 289.37890625 c 0
 355.420898438 311.329101562 330.532226562 330.068359375 297.59375 345.609375 c 1
EndSplineSet
EndChar

StartChar: percent
Encoding: 37 37 74
Width: 670
Flags: HW
LayerCount: 2
Fore
SplineSet
187.615234375 750 m 0
 268.668945312 750 335.23046875 683.436523438 335.23046875 602.3828125 c 0
 335.23046875 521.329101562 268.668945312 454.759765625 187.615234375 454.759765625 c 0
 106.561523438 454.759765625 40 521.329101562 40 602.3828125 c 0
 40 683.436523438 106.561523438 750 187.615234375 750 c 0
507.775390625 750 m 5
 574.84765625 711.169921875 l 1
 162.6953125 -0.828125 l 1
 95.623046875 37.994140625 l 1
 507.775390625 750 l 5
187.615234375 675.001953125 m 0
 149.796875 675.001953125 119.998046875 640.201171875 119.998046875 602.3828125 c 0
 119.998046875 564.564453125 149.796875 529.765625 187.615234375 529.765625 c 0
 225.43359375 529.765625 255.234375 564.564453125 255.234375 602.3828125 c 0
 255.234375 640.201171875 225.43359375 675.001953125 187.615234375 675.001953125 c 0
482.853515625 294.404296875 m 0
 563.907226562 294.404296875 630.470703125 227.840820312 630.470703125 146.787109375 c 0
 630.470703125 65.7333984375 563.907226562 -0.828125 482.853515625 -0.828125 c 0
 401.799804688 -0.828125 335.23046875 65.7333984375 335.23046875 146.787109375 c 0
 335.23046875 227.840820312 401.799804688 294.404296875 482.853515625 294.404296875 c 0
482.853515625 219.171875 m 0
 445.03515625 219.171875 415.236328125 184.60546875 415.236328125 146.787109375 c 0
 415.236328125 108.96875 445.03515625 74.169921875 482.853515625 74.169921875 c 0
 520.671875 74.169921875 550.47265625 108.96875 550.47265625 146.787109375 c 0
 550.47265625 184.60546875 520.671875 219.171875 482.853515625 219.171875 c 0
EndSplineSet
EndChar

StartChar: ampersand
Encoding: 38 38 75
Width: 646
Flags: HW
LayerCount: 2
Fore
SplineSet
299.67578125 750 m 0
 395.8515625 750 474.67578125 671.17578125 474.67578125 575 c 0
 474.67578125 495.986328125 421.288085938 428.412109375 344.966796875 407.962890625 c 2
 334.08203125 404.470703125 l 1
 487.69140625 250.86328125 l 1
 561.62109375 324.791015625 l 1
 616.423828125 269.994140625 l 1
 542.4921875 196.0625 l 1
 613.125 125.4296875 l 1
 558.328125 70.6328125 l 1
 487.6953125 141.265625 l 1
 413.216796875 66.787109375 l 2
 371.032226562 24.6025390625 314.658203125 0.001953125 255 0.001953125 c 0
 131.209960938 0.001953125 30 101.211914062 30 225.001953125 c 0
 30 324.444335938 95.65234375 410.223632812 190.43359375 438.52734375 c 1
 176.818359375 452.142578125 l 2
 155.176757812 473.78515625 139.1640625 500.303710938 131.2421875 529.8671875 c 0
 127.284179688 544.639648438 124.67578125 559.706054688 124.67578125 575 c 0
 124.67578125 671.17578125 203.5 750 299.67578125 750 c 0
299.67578125 675 m 0
 246.735351562 675 204.67578125 627.940429688 204.67578125 575 c 0
 204.67578125 566.697265625 205.15625 558.267578125 207.3046875 550.248046875 c 0
 211.649414062 534.032226562 219.743164062 518.809570312 231.61328125 506.939453125 c 2
 273.578125 464.9765625 l 1
 324.26171875 481.236328125 l 2
 365.981445312 492.415039062 394.67578125 531.80859375 394.67578125 575 c 0
 394.67578125 627.940429688 352.616210938 675 299.67578125 675 c 0
251.109375 377.8515625 m 1
 217.470703125 367.05859375 l 2
 153.892578125 350.022460938 109.998046875 290.823242188 109.998046875 225.001953125 c 0
 109.998046875 144.447265625 174.4453125 75 255 75 c 0
 293.471679688 75 331.208007812 94.3857421875 358.412109375 121.58984375 c 2
 432.892578125 196.068359375 l 1
 251.109375 377.8515625 l 1
EndSplineSet
EndChar

StartChar: quotesingle
Encoding: 39 39 76
Width: 130
Flags: HW
LayerCount: 2
Fore
SplineSet
30 750 m 1
 100.001953125 750 l 1
 100.001953125 499.998046875 l 1
 30 499.998046875 l 1
 30 750 l 1
EndSplineSet
EndChar

StartChar: braceright
Encoding: 125 125 77
Width: 250
Flags: HW
LayerCount: 2
Fore
SplineSet
65.001953125 800 m 2
 119.756835938 800 165.00390625 754.752929688 165.00390625 699.998046875 c 2
 165.00390625 450 l 2
 165.00390625 438.48046875 173.482421875 427.49609375 185.001953125 427.49609375 c 2
 210.00390625 427.49609375 l 1
 210.00390625 352.498046875 l 1
 185.001953125 352.498046875 l 2
 173.482421875 352.498046875 165.00390625 341.51953125 165.00390625 330 c 2
 165.00390625 49.99609375 l 2
 165.00390625 -4.7587890625 119.756835938 -50 65.001953125 -50 c 2
 40 -50 l 1
 40 24.998046875 l 1
 65.001953125 24.998046875 l 2
 76.521484375 24.998046875 85 38.4765625 85 49.99609375 c 2
 85 330 l 2
 85 352.41015625 92.58203125 373.224609375 105.291015625 389.998046875 c 1
 92.58203125 406.7734375 85 427.588867188 85 450 c 2
 85 699.998046875 l 2
 85 711.517578125 76.4794921875 725.971679688 65.001953125 724.99609375 c 2
 40 724.99609375 l 1
 40 800 l 1
 65.001953125 800 l 2
EndSplineSet
EndChar

StartChar: parenright
Encoding: 41 41 78
Width: 283
Flags: HW
LayerCount: 2
Fore
SplineSet
99.3359375 799.35546875 m 1
 206.146484375 671.79296875 263.922851562 524.176757812 263.922851562 373.228515625 c 0
 263.922851562 222.895507812 206.619140625 75.845703125 100.620117188 -51.3701171875 c 1
 41.1591796875 -2.1552734375 l 1
 136.909179688 112.76171875 183.924804688 243.116210938 183.924804688 373.228515625 c 0
 183.924804688 503.874023438 136.505859375 634.743164062 40 750 c 1
 99.3359375 799.35546875 l 1
EndSplineSet
EndChar

StartChar: parenleft
Encoding: 40 40 79
Width: 293
Flags: HW
LayerCount: 2
Fore
SplineSet
194.586914062 801.510742188 m 1
 253.922851562 752.155273438 l 1
 157.416992188 636.8984375 109.998046875 506.029296875 109.997070312 375.383789062 c 0
 109.997070312 245.271484375 157.013671875 114.916992188 252.763671875 0 c 1
 193.301757812 -49.21484375 l 1
 87.3037109375 78.0009765625 30 225.05078125 30 375.383789062 c 0
 30 526.33203125 87.7763671875 673.948242188 194.586914062 801.510742188 c 1
EndSplineSet
EndChar

StartChar: asterisk
Encoding: 42 42 80
Width: 403
Flags: HW
LayerCount: 2
Fore
SplineSet
171.556640625 750 m 1
 231.556640625 750 l 1
 231.556640625 626.9609375 l 1
 338.107421875 688.48046875 l 1
 368.107421875 636.51953125 l 1
 261.552734375 574.998046875 l 1
 368.107421875 513.4765625 l 1
 338.107421875 461.515625 l 1
 231.556640625 523.03515625 l 1
 231.556640625 399.99609375 l 1
 171.556640625 399.99609375 l 1
 171.556640625 523.037109375 l 1
 65 461.515625 l 1
 35 513.4765625 l 1
 141.5546875 574.998046875 l 1
 35 636.51953125 l 1
 65 688.48046875 l 1
 171.556640625 626.958984375 l 1
 171.556640625 750 l 1
EndSplineSet
EndChar

StartChar: plus
Encoding: 43 43 81
Width: 510
Flags: HW
LayerCount: 2
Fore
SplineSet
217.5 600 m 1
 292.5 600 l 1
 292.5 410 l 1
 480 410 l 1
 480 340 l 1
 292.5 340 l 1
 292.5 150 l 1
 217.5 150 l 1
 217.5 340 l 1
 30 340 l 1
 30 410 l 1
 217.5 410 l 1
 217.5 600 l 1
EndSplineSet
EndChar

StartChar: hyphen
Encoding: 45 45 82
Width: 360
Flags: HW
LayerCount: 2
Fore
SplineSet
30 410.002929688 m 5
 330 410.002929688 l 5
 330 340 l 5
 30 340 l 5
 30 410.002929688 l 5
EndSplineSet
EndChar

StartChar: slash
Encoding: 47 47 83
Width: 583
Flags: HW
LayerCount: 2
Fore
SplineSet
463.013671875 750 m 1
 553.078125 750 l 1
 542.142578125 731.052734375 l 1
 120.060546875 0 l 1
 30 0 l 1
 41.259765625 19.498046875 l 1
 463.013671875 750 l 1
EndSplineSet
EndChar

StartChar: comma
Encoding: 44 44 84
Width: 243
Flags: HW
LayerCount: 2
Fore
SplineSet
127.14453125 130 m 1
 213.452148438 99.8623046875 l 1
 88.923828125 -171.64453125 l 1
 30 -147.952148438 l 1
 127.14453125 130 l 1
EndSplineSet
EndChar

StartChar: period
Encoding: 46 46 85
Width: 170
Flags: HW
LayerCount: 2
Fore
SplineSet
85 110 m 0
 115.35546875 110 140 85.35546875 140 55 c 0
 140 24.64453125 115.35546875 0 85 0 c 0
 54.64453125 0 30 24.64453125 30 55 c 0
 30 85.35546875 54.64453125 110 85 110 c 0
EndSplineSet
EndChar

StartChar: semicolon
Encoding: 59 59 86
Width: 255
Flags: HW
LayerCount: 2
Fore
SplineSet
170.297851562 450 m 0
 200.653320312 450 225.297851562 425.35546875 225.297851562 395 c 0
 225.297851562 364.64453125 200.653320312 340 170.297851562 340 c 0
 139.943359375 340 115.297851562 364.64453125 115.297851562 395 c 0
 115.297851562 425.35546875 139.943359375 450 170.297851562 450 c 0
127.14453125 129.58984375 m 1
 213.452148438 99.4521484375 l 1
 88.923828125 -172.0546875 l 1
 30 -148.362304688 l 1
 127.14453125 129.58984375 l 1
EndSplineSet
EndChar

StartChar: colon
Encoding: 58 58 87
Width: 170
Flags: HW
LayerCount: 2
Fore
SplineSet
85 110 m 4
 115.35546875 110 140 85.35546875 140 55 c 4
 140 24.64453125 115.35546875 0 85 0 c 4
 54.64453125 0 30 24.64453125 30 55 c 4
 30 85.35546875 54.64453125 110 85 110 c 4
85 450 m 4
 115.35546875 450 140 425.35546875 140 395 c 4
 140 364.64453125 115.35546875 340 85 340 c 4
 54.64453125 340 30 364.64453125 30 395 c 4
 30 425.35546875 54.64453125 450 85 450 c 4
EndSplineSet
EndChar

StartChar: less
Encoding: 60 60 88
Width: 684
Flags: HW
LayerCount: 2
Fore
SplineSet
644.349609375 596 m 1
 644.349609375 513.92578125 l 1
 144.96484375 310.23046875 l 1
 644.349609375 106.52734375 l 1
 644.349609375 24.4453125 l 1
 30 275.041015625 l 1
 30 345.412109375 l 1
 644.349609375 596 l 1
EndSplineSet
EndChar

StartChar: greater
Encoding: 62 62 89
Width: 674
Flags: HW
LayerCount: 2
Fore
SplineSet
40 596 m 1
 654.349609375 345.412109375 l 1
 654.349609375 275.041015625 l 1
 40 24.4453125 l 1
 40 106.52734375 l 1
 539.384765625 310.23046875 l 1
 40 513.92578125 l 1
 40 596 l 1
EndSplineSet
EndChar

StartChar: equal
Encoding: 61 61 90
Width: 560
Flags: HW
LayerCount: 2
Fore
SplineSet
30 473 m 1
 530.009765625 473 l 1
 530.009765625 398 l 1
 30 398 l 1
 30 473 l 1
30 223 m 1
 530 223 l 1
 530 148 l 1
 30 148 l 1
 30 223 l 1
EndSplineSet
EndChar

StartChar: at
Encoding: 64 64 91
Width: 832
Flags: HW
LayerCount: 2
Fore
SplineSet
405.849609375 750 m 0
 612.895507812 750 781.69140625 581.6875 781.69140625 375 c 2
 781.69140625 340.083984375 l 1
 781.712890625 340.083984375 l 1
 782.029296875 198.16796875 l 2
 782.029296875 121.805664062 719.146484375 59.14453125 642.755859375 59.14453125 c 0
 566.365234375 59.14453125 503.482421875 121.805664062 503.482421875 198.16796875 c 2
 503.22265625 237.646484375 l 1
 475.681640625 213.056640625 435.873046875 198.16796875 394.708984375 198.16796875 c 0
 297.25390625 198.16796875 228.595703125 278.578125 228.595703125 375 c 0
 228.595703125 471.421875 297.25390625 551.833984375 394.708984375 551.833984375 c 0
 435.872070312 551.833984375 475.681640625 536.9453125 503.22265625 512.35546875 c 1
 503.22265625 540.724609375 l 1
 583.103515625 540.724609375 l 1
 583.478515625 198.16796875 l 2
 583.478515625 165.150390625 609.491210938 134.142578125 642.755859375 134.142578125 c 0
 676.017578125 134.142578125 702.029296875 165.146484375 702.033203125 198.16015625 c 2
 701.71875 334.998046875 l 1
 701.693359375 334.998046875 l 1
 701.693359375 375 l 2
 701.693359375 538.342773438 569.76953125 674.99609375 405.849609375 674.99609375 c 0
 241.9296875 674.99609375 109.998046875 538.342773438 109.998046875 375 c 0
 109.998046875 211.657226562 241.9296875 74.998046875 405.849609375 74.998046875 c 0
 405.904296875 74.998046875 405.958984375 75 406.013671875 75 c 1
 406.013671875 0.001953125 l 1
 405.958984375 0.001953125 405.904296875 0 405.849609375 0 c 0
 198.803710938 0 30 168.3125 30 375 c 0
 30 581.6875 198.803710938 750 405.849609375 750 c 0
405.849609375 475.80078125 m 0
 351.934570312 475.80078125 308.466796875 429.16015625 308.466796875 375 c 0
 308.466796875 320.83984375 351.934570312 274.193359375 405.849609375 274.193359375 c 0
 459.764648438 274.193359375 503.22265625 320.83984375 503.22265625 375 c 0
 503.22265625 429.16015625 459.764648438 475.80078125 405.849609375 475.80078125 c 0
EndSplineSet
EndChar

StartChar: bracketleft
Encoding: 91 91 92
Width: 275
Flags: HWO
LayerCount: 2
Fore
SplineSet
60 800 m 1
 139.998046875 800 l 1
 235.001953125 800 l 1
 235.001953125 725 l 1
 139.998046875 725 l 1
 139.998046875 25 l 1
 235.001953125 25 l 1
 235.001953125 -50 l 1
 139.998046875 -50 l 1
 60 -50 l 1
 60 25 l 1
 60 725 l 1
 60 800 l 1
EndSplineSet
EndChar

StartChar: bracketright
Encoding: 93 93 93
Width: 275
Flags: HW
LayerCount: 2
Fore
SplineSet
215.001953125 800 m 1
 215.001953125 725 l 1
 215.001953125 25 l 1
 215.001953125 -50 l 1
 135.00390625 -50 l 1
 40 -50 l 1
 40 25 l 1
 135.00390625 25 l 1
 135.00390625 725 l 1
 40 725 l 1
 40 800 l 1
 135.00390625 800 l 1
 215.001953125 800 l 1
EndSplineSet
EndChar

StartChar: braceleft
Encoding: 123 123 94
Width: 250
Flags: HW
LayerCount: 2
Fore
SplineSet
185.001953125 800 m 2
 210.00390625 800 l 1
 210.00390625 724.99609375 l 1
 185.001953125 724.99609375 l 2
 173.482421875 724.99609375 165.00390625 711.517578125 165.00390625 699.998046875 c 2
 165.00390625 449.999023438 l 2
 165.00390625 427.587890625 157.421875 406.772460938 144.712890625 389.997070312 c 1
 157.421875 373.223632812 165.00390625 352.409179688 165.00390625 329.999023438 c 2
 165.00390625 49.9951171875 l 2
 165.00390625 38.4755859375 173.482421875 24.9970703125 185.001953125 24.9970703125 c 2
 210.00390625 24.9970703125 l 1
 210.00390625 -50.0009765625 l 1
 185.001953125 -50.0009765625 l 2
 130.247070312 -50.0009765625 85 -4.759765625 85 49.9951171875 c 2
 85 329.999023438 l 2
 85 341.518554688 76.521484375 352.497070312 65.001953125 352.497070312 c 2
 40 352.497070312 l 1
 40 427.495117188 l 1
 65.001953125 427.495117188 l 2
 76.521484375 427.495117188 85 438.479492188 85 449.999023438 c 2
 85 699.998046875 l 2
 85 754.752929688 130.247070312 800 185.001953125 800 c 2
EndSplineSet
EndChar

StartChar: asciicircum
Encoding: 94 94 95
Width: 567
Flags: HW
LayerCount: 2
Fore
SplineSet
251.494140625 750 m 1
 315.982421875 750 l 1
 515.978515625 450 l 1
 537.474609375 417.755859375 l 1
 444.32421875 417.755859375 l 1
 283.73828125 658.642578125 l 1
 123.142578125 417.755859375 l 1
 30 417.755859375 l 1
 51.49609375 450 l 1
 251.494140625 750 l 1
EndSplineSet
EndChar

StartChar: grave
Encoding: 96 96 96
Width: 301
Flags: HW
LayerCount: 2
Fore
SplineSet
105.56640625 750 m 1
 271.33984375 506.662109375 l 1
 220.555664062 468.526367188 l 1
 30 698.55078125 l 1
 105.56640625 750 l 1
EndSplineSet
EndChar

StartChar: bar
Encoding: 124 124 97
Width: 190
Flags: HW
LayerCount: 2
Fore
SplineSet
60 800 m 1
 130.001953125 800 l 1
 130.001953125 746.6015625 l 1
 130.001953125 671.220703125 l 1
 130.001953125 436.04296875 l 1
 130.001953125 344.609375 l 1
 130.001953125 77.400390625 l 1
 130.001953125 3.71875 l 1
 130.001953125 -49.994140625 l 1
 60 -49.994140625 l 1
 60 2.70703125 l 1
 60 76.1171875 l 1
 60 374.787109375 l 1
 60 467.39453125 l 1
 60 675.12109375 l 1
 60 746.5546875 l 1
 60 800 l 1
EndSplineSet
EndChar

StartChar: asciitilde
Encoding: 126 126 98
Width: 715
Flags: HW
LayerCount: 2
Fore
SplineSet
222.71875 496 m 2
 222.71875 496 l 1
 239.984375 496.0703125 257.515625 493.881835938 274.9453125 489.2109375 c 0
 326.166015625 475.486328125 369.87890625 441.944335938 396.392578125 396.021484375 c 0
 412.313476562 368.447265625 438.49609375 348.352539062 469.251953125 340.111328125 c 0
 533.725585938 322.8359375 598.94921875 360.493164062 616.224609375 424.966796875 c 1
 685.498046875 401.259765625 l 1
 657.032226562 295.024414062 554.780273438 239.372070312 448.544921875 267.837890625 c 0
 397.32421875 281.5625 353.619140625 315.096679688 327.10546875 361.01953125 c 0
 311.184570312 388.594726562 285.001953125 408.688476562 254.24609375 416.9296875 c 0
 189.772460938 434.205078125 118.548828125 394.555664062 101.2734375 330.08203125 c 1
 30 347.7890625 l 1
 53.12890625 434.10546875 130.25 492.30859375 215.337890625 495.83203125 c 0
 217.791992188 495.93359375 220.251953125 495.989257812 222.71875 496 c 2
EndSplineSet
EndChar
